<?xml version="1.0" encoding="UTF-8"?>
<svg xmlns="http://www.w3.org/2000/svg"
     width="1024"
     height="1024"
     viewBox="132 270 1000 1000"
     role="img"
     aria-labelledby="logo-title logo-desc">
  <title id="logo-title">BuGuLog 标志</title>
  <desc id="logo-desc">由几何鸟形、珊瑚色翅膀和文章轮廓组成的标志</desc>

  <!-- 固定的中明度配色，无论博客处于浅色或深色主题均保持清晰。 -->
  <path id="article"
        fill="#4D7592"
        fill-rule="evenodd"
        d="M 657.399 473.514 C 655.220 476.839, 655.649 477.693, 666.418 491.500 C 671.137 497.550, 678.936 507.621, 683.749 513.880 C 688.562 520.139, 693.928 526.889, 695.673 528.880 L 698.846 532.500 790.673 533 C 877.082 533.470, 882.717 533.608, 886.179 535.330 C 891.074 537.766, 896.503 543.152, 899.258 548.306 L 901.500 552.500 901.761 732.887 L 902.021 913.273 899.638 918.387 C 896.681 924.730, 891.877 929.669, 886 932.405 L 881.500 934.500 709 934.500 L 536.500 934.500 531.368 931.793 C 528.546 930.304, 524.827 927.307, 523.106 925.133 C 516.815 917.190, 517.006 919.808, 516.946 840.691 L 516.891 768.633 513.608 765.567 C 511.023 763.152, 489.722 747.496, 484.523 744.190 C 483.927 743.811, 477.898 736.833, 471.127 728.683 C 464.356 720.534, 458.118 713.599, 457.264 713.271 C 452.977 711.626, 453 711.072, 453 817.060 C 453 925.574, 453.054 926.832, 458.291 941.190 C 461.830 950.891, 468.511 961.479, 476.204 969.578 C 486.907 980.845, 500.359 988.910, 515.745 993.284 L 523.500 995.488 702.500 995.797 C 826.684 996.011, 884.394 995.773, 890.951 995.019 C 909.907 992.842, 928.225 984.369, 941.093 971.829 C 949.018 964.104, 956.581 953.013, 960.361 943.571 C 966.274 928.802, 966.065 937.093, 965.770 728.442 L 965.500 537.500 962.199 528 C 957.393 514.170, 952.164 505.929, 941.535 495.434 C 933.997 487.990, 930.568 485.450, 922.377 481.243 C 916.890 478.424, 909.048 475.087, 904.950 473.826 L 897.500 471.534 778.291 471.240 L 659.082 470.945 657.399 473.514 M 594.653 757.137 C 589.573 757.897, 583.198 761.662, 579.907 765.846 C 577.006 769.533, 574.674 778.561, 575.419 783.218 C 576.850 792.168, 584.141 800.681, 592.292 802.919 C 595.392 803.770, 627.056 803.999, 712.500 803.787 L 828.500 803.500 832.595 801.309 C 838.378 798.214, 842.687 792.885, 844.529 786.549 C 847.732 775.532, 842.341 764.314, 831 758.398 C 827.674 756.663, 821.840 756.568, 713.500 756.492 C 650.800 756.448, 597.319 756.738, 594.653 757.137 M 592 838.537 C 579.632 842.377, 572.781 854.899, 576.358 867.124 C 578.258 873.616, 582.738 879.280, 588.347 882.279 L 592.500 884.500 680 884.500 L 767.500 884.500 772.500 881.930 C 781.450 877.329, 786.881 867.445, 785.599 858.091 C 784.350 848.978, 776.678 840.672, 767.035 837.993 C 764.843 837.384, 731.784 837.035, 680 837.075 C 611.456 837.128, 595.694 837.390, 592 838.537"/>

  <path id="bird-body"
        fill="#357A78"
        fill-rule="evenodd"
        d="M 297.959 454.550 C 296.572 456.221, 294.298 452.941, 327.043 496.500 C 341.100 515.200, 383.343 571.450, 420.915 621.500 C 458.488 671.550, 490.190 713.555, 491.365 714.845 C 494.424 718.205, 488.598 719.339, 568.500 699.829 C 624.898 686.058, 700.572 667.716, 755.500 654.504 C 819.308 639.156, 825 637.715, 825 636.919 C 825 635.897, 796.625 625.738, 740 606.486 C 728.175 602.466, 711.975 596.853, 704 594.013 C 688.336 588.436, 662.647 579.567, 649 575.026 C 644.325 573.470, 636 570.543, 630.500 568.521 C 625 566.499, 613.525 562.474, 605 559.575 C 596.475 556.677, 584.100 552.404, 577.500 550.080 C 570.900 547.757, 553.350 541.654, 538.500 536.520 C 523.650 531.385, 503.625 524.410, 494 521.021 C 484.375 517.631, 470.200 512.675, 462.500 510.008 C 454.800 507.341, 435 500.434, 418.500 494.660 C 322.247 460.976, 304.242 454.698, 301.802 453.972 C 299.918 453.411, 298.759 453.586, 297.959 454.550"/>

  <path id="wing"
        fill="#BD624F"
        fill-rule="evenodd"
        d="M 462.486 289.023 C 461.726 290.253, 461.247 477.212, 461.993 481.484 C 462.481 484.280, 463.299 484.763, 475.007 489.167 C 486.775 493.594, 514.098 503.513, 569.500 523.471 C 582.700 528.226, 598.225 533.866, 604 536.005 C 631.815 546.307, 681.401 564, 682.458 564 C 682.756 564, 683 563.478, 683 562.841 C 683 561.498, 678.322 555.121, 665.513 539 C 660.488 532.675, 650.144 519.625, 642.528 510 C 634.912 500.375, 625.457 488.450, 621.517 483.500 C 617.577 478.550, 599.110 455.150, 580.478 431.500 C 561.847 407.850, 540.706 381.075, 533.499 372 C 526.292 362.925, 515.265 348.975, 508.995 341 C 470.394 291.900, 467.157 288, 465.005 288 C 463.967 288, 462.833 288.460, 462.486 289.023"/>
</svg>
